<svg width="1280" height="720" viewBox="0 0 1280 720" role="img" xmlns="http://www.w3.org/2000/svg" font-family="Inter, system-ui, -apple-system, 'Segoe UI', Roboto, sans-serif">
<title>GRC Assistant — thumbnail 16:9</title>
<desc>Thumbnail dự án GRC Assistant: trợ lý tri thức ISMS cho ZaloPay Compliance/GRC, hỏi đáp grounded có trích dẫn nguồn, dùng trên Web và Teams.</desc>
<defs>
  <linearGradient id="bg" x1="0" y1="0" x2="1" y2="1">
    <stop offset="0" stop-color="#081634"/>
    <stop offset="1" stop-color="#0b1f4d"/>
  </linearGradient>
  <linearGradient id="brand" x1="0" y1="0" x2="1" y2="1">
    <stop offset="0" stop-color="#00CF6A"/>
    <stop offset="1" stop-color="#0033C9"/>
  </linearGradient>
  <radialGradient id="glowG" cx="0.5" cy="0.5" r="0.5">
    <stop offset="0" stop-color="#00CF6A" stop-opacity="0.28"/>
    <stop offset="1" stop-color="#00CF6A" stop-opacity="0"/>
  </radialGradient>
  <radialGradient id="glowB" cx="0.5" cy="0.5" r="0.5">
    <stop offset="0" stop-color="#2f6bff" stop-opacity="0.30"/>
    <stop offset="1" stop-color="#2f6bff" stop-opacity="0"/>
  </radialGradient>
</defs>

<rect x="0" y="0" width="1280" height="720" fill="url(#bg)"/>
<ellipse cx="140" cy="40" rx="540" ry="430" fill="url(#glowG)"/>
<ellipse cx="1180" cy="710" rx="560" ry="450" fill="url(#glowB)"/>

<rect x="96" y="92" width="84" height="84" rx="20" fill="url(#brand)"/>
<text x="138" y="150" text-anchor="middle" font-size="46" font-weight="700" fill="#ffffff">Z</text>

<text x="98" y="234" font-size="21" letter-spacing="3" font-weight="500" fill="#3ddc97">ZaloPay  ·  Compliance / GRC</text>
<text x="94" y="318" font-size="76" font-weight="700" fill="#ffffff">GRC Assistant</text>
<text x="98" y="374" font-size="30" fill="#aebfe0">Trợ lý tri thức ISMS — bảo mật &amp; tuân thủ</text>
<text x="98" y="432" font-size="21" fill="#8a9cc0">Hỏi đáp grounded trên 52 tài liệu ISMS của ZaloPay.</text>
<text x="98" y="463" font-size="21" fill="#8a9cc0">Câu trả lời luôn kèm trích dẫn nguồn — không bịa.</text>

<g font-size="20" font-weight="500">
  <rect x="98" y="520" width="214" height="48" rx="24" fill="#11244d" stroke="#27488a"/>
  <text x="205" y="551" text-anchor="middle" fill="#dbe6ff">Grounded · không bịa</text>
  <rect x="326" y="520" width="168" height="48" rx="24" fill="#11244d" stroke="#27488a"/>
  <text x="410" y="551" text-anchor="middle" fill="#dbe6ff">Trích dẫn [n]</text>
  <rect x="508" y="520" width="168" height="48" rx="24" fill="#11244d" stroke="#27488a"/>
  <text x="592" y="551" text-anchor="middle" fill="#dbe6ff">Web + Teams</text>
</g>

<rect x="734" y="150" width="452" height="430" rx="22" fill="#16294f" stroke="#3a5590"/>
<rect x="760" y="178" width="40" height="40" rx="11" fill="url(#brand)"/>
<text x="780" y="205" text-anchor="middle" font-size="22" font-weight="700" fill="#ffffff">Z</text>
<text x="812" y="195" font-size="18" font-weight="600" fill="#eaf0fb">GRC Assistant</text>
<text x="812" y="215" font-size="13" fill="#7f90b5">ISMS knowledge</text>
<circle cx="1118" cy="197" r="5" fill="#3ddc97"/>
<text x="1132" y="202" font-size="14" fill="#9fb0d4">Ready</text>
<line x1="760" y1="240" x2="1160" y2="240" stroke="#23375f"/>

<rect x="846" y="262" width="314" height="46" rx="14" fill="#2f6bff"/>
<text x="1142" y="291" text-anchor="end" font-size="18" fill="#ffffff">QT-01 có mấy version?</text>

<text x="760" y="356" font-size="18" fill="#dbe6ff">Theo ZION-QT-01, tài liệu có 4 phiên</text>
<text x="760" y="384" font-size="18" fill="#dbe6ff">bản: 1.0, 1.1, 1.2, 1.3.</text>
<rect x="982" y="368" width="26" height="22" rx="6" fill="#0c2a1c" stroke="#00CF6A"/>
<text x="995" y="384" text-anchor="middle" font-size="14" font-weight="700" fill="#3ddc97">1</text>

<rect x="760" y="430" width="400" height="66" rx="12" fill="#1c3162" stroke="#3a5790"/>
<rect x="776" y="447" width="30" height="30" rx="8" fill="#0c2a1c"/>
<text x="791" y="468" text-anchor="middle" font-size="15" font-weight="700" fill="#3ddc97">1</text>
<text x="820" y="459" font-size="16" fill="#eaf0fb">ZION-QT-01 — Quy Trình Xử Lý Sự Cố</text>
<text x="820" y="481" font-size="13" fill="#7f90b5">ZION-QT-01  ·  trang 8</text>

<rect x="0" y="712" width="1280" height="8" fill="url(#brand)"/>
</svg>
