<svg width="1280" height="720" viewBox="0 0 1280 720" role="img" xmlns="http://www.w3.org/2000/svg" font-family="Inter, system-ui, -apple-system, 'Segoe UI', Roboto, Helvetica, Arial, sans-serif">
<title>GRC Assistant — thumbnail 16:9</title>
<desc>Thumbnail dự án GRC Assistant: trợ lý tri thức ISMS cho ZaloPay Compliance/GRC, hỏi đáp grounded có trích dẫn nguồn, dùng trên Web và Teams.</desc>
<defs>
  <linearGradient id="bg" x1="0" y1="0" x2="1" y2="1">
    <stop offset="0" stop-color="#081634"/>
    <stop offset="1" stop-color="#0b1f4d"/>
  </linearGradient>
  <linearGradient id="brand" x1="0" y1="0" x2="1" y2="1">
    <stop offset="0" stop-color="#00CF6A"/>
    <stop offset="1" stop-color="#0033C9"/>
  </linearGradient>
  <radialGradient id="glowG" cx="0.5" cy="0.5" r="0.5">
    <stop offset="0" stop-color="#00CF6A" stop-opacity="0.26"/>
    <stop offset="1" stop-color="#00CF6A" stop-opacity="0"/>
  </radialGradient>
  <radialGradient id="glowB" cx="0.5" cy="0.5" r="0.5">
    <stop offset="0" stop-color="#2f6bff" stop-opacity="0.30"/>
    <stop offset="1" stop-color="#2f6bff" stop-opacity="0"/>
  </radialGradient>
</defs>

<rect x="0" y="0" width="1280" height="720" fill="url(#bg)"/>
<ellipse cx="120" cy="20" rx="560" ry="440" fill="url(#glowG)"/>
<ellipse cx="1180" cy="720" rx="600" ry="470" fill="url(#glowB)"/>

<rect x="592" y="120" width="96" height="96" rx="24" fill="url(#brand)"/>
<text x="640" y="187" text-anchor="middle" font-size="54" font-weight="700" fill="#ffffff">Z</text>

<text x="640" y="298" text-anchor="middle" font-size="22" letter-spacing="4" font-weight="500" fill="#3ddc97">Zalopay  ·  Compliance / GRC</text>
<text x="640" y="396" text-anchor="middle" font-size="84" font-weight="700" fill="#ffffff">GRC Assistant</text>
<text x="640" y="456" text-anchor="middle" font-size="31" fill="#b3c4e4">Trợ lý tri thức ISMS cho Zalopay</text>
<text x="640" y="506" text-anchor="middle" font-size="22" fill="#8a9cc0">Câu trả lời bám sát tài liệu · trích dẫn nguồn minh bạch · không suy diễn</text>

<g font-size="21" font-weight="500">
  <rect x="271" y="566" width="230" height="54" rx="27" fill="#11244d" stroke="#2c4f95"/>
  <text x="386" y="600" text-anchor="middle" fill="#dbe6ff">52 tài liệu ISMS</text>
  <rect x="525" y="566" width="230" height="54" rx="27" fill="#11244d" stroke="#2c4f95"/>
  <text x="640" y="600" text-anchor="middle" fill="#dbe6ff">Trích dẫn [n]</text>
  <rect x="779" y="566" width="230" height="54" rx="27" fill="#11244d" stroke="#2c4f95"/>
  <text x="894" y="600" text-anchor="middle" fill="#dbe6ff">Web + Teams</text>
</g>

<rect x="0" y="712" width="1280" height="8" fill="url(#brand)"/>
</svg>
